<svg id="Capa_1" enable-background="new 0 0 512 512" height="512" viewBox="0 0 512 512" width="512" xmlns="http://www.w3.org/2000/svg"><g><g><path d="m241 252.697h30v157.607h-30z" fill="#3aaaff" transform="matrix(.447 -.894 .894 .447 -154.989 412.222)"/></g><g><path d="m177.197 165.5h157.607v30h-157.607z" fill="#3aaaff" transform="matrix(.894 -.447 .447 .894 -53.695 133.538)"/></g><g><g><g><path d="m105 361c-57.897 0-105-47.103-105-105s47.103-105 105-105 105 47.103 105 105-47.103 105-105 105z" fill="#76e2f8"/></g></g><g><path d="m407 210c-57.897 0-105-47.103-105-105s47.103-105 105-105 105 47.103 105 105-47.103 105-105 105z" fill="#76e2f8"/></g><g><path d="m407 512c-57.897 0-105-47.103-105-105s47.103-105 105-105 105 47.103 105 105-47.103 105-105 105z" fill="#76e2f8"/></g></g><g><g fill="#3aaaff"><path d="m210 256c0-57.897-47.103-105-105-105v210c57.897 0 105-47.103 105-105z"/><path d="m512 407c0-57.897-47.103-105-105-105v210c57.897 0 105-47.103 105-105z"/><path d="m512 105c0-57.897-47.103-105-105-105v210c57.897 0 105-47.103 105-105z"/></g></g></g></svg>